<svg width="32" height="32" viewBox="0 0 32 32" fill="none" xmlns="http://www.w3.org/2000/svg">
<path fill-rule="evenodd" clip-rule="evenodd" d="M15.8334 3.16667C13.6179 3.16626 11.4411 3.74694 9.52015 4.85074C7.59924 5.95455 6.00143 7.54287 4.88621 9.45718C3.77099 11.3715 3.17736 13.5448 3.16457 15.7602C3.15179 17.9757 3.7203 20.1557 4.81335 22.0827C5.55215 21.1226 6.50187 20.3452 7.58907 19.8106C8.67627 19.2761 9.87184 18.9987 11.0834 19H20.5834C21.7949 18.9987 22.9904 19.2761 24.0776 19.8106C25.1648 20.3452 26.1145 21.1226 26.8533 22.0827C27.9464 20.1557 28.5149 17.9757 28.5021 15.7602C28.4893 13.5448 27.8957 11.3715 26.7805 9.45718C25.6653 7.54287 24.0675 5.95455 22.1466 4.85074C20.2256 3.74694 18.0488 3.16626 15.8334 3.16667ZM28.4098 25.4537C30.5267 22.6939 31.6718 19.3116 31.6667 15.8333C31.6667 7.08858 24.5781 0 15.8334 0C7.0886 0 1.78176e-05 7.08858 1.78176e-05 15.8333C-0.00520946 19.3116 1.13987 22.6939 3.25693 25.4537L3.24902 25.4822L3.8111 26.1361C5.29609 27.8722 7.13988 29.2657 9.21538 30.2205C11.2909 31.1753 13.5488 31.6687 15.8334 31.6667C19.0433 31.6726 22.1784 30.6975 24.8188 28.8721C25.9444 28.0944 26.9651 27.1748 27.8556 26.1361L28.4177 25.4822L28.4098 25.4537ZM15.8334 6.33333C14.5736 6.33333 13.3654 6.83378 12.4746 7.72458C11.5838 8.61537 11.0834 9.82355 11.0834 11.0833C11.0834 12.3431 11.5838 13.5513 12.4746 14.4421C13.3654 15.3329 14.5736 15.8333 15.8334 15.8333C17.0931 15.8333 18.3013 15.3329 19.1921 14.4421C20.0829 13.5513 20.5834 12.3431 20.5834 11.0833C20.5834 9.82355 20.0829 8.61537 19.1921 7.72458C18.3013 6.83378 17.0931 6.33333 15.8334 6.33333Z" fill="black"/>
</svg>
